<?xml version="1.0" encoding="UTF-8" standalone="no"?>
<svg
   xmlns:dc="http://purl.org/dc/elements/1.1/"
   xmlns:cc="http://creativecommons.org/ns#"
   xmlns:rdf="http://www.w3.org/1999/02/22-rdf-syntax-ns#"
   xmlns:svg="http://www.w3.org/2000/svg"
   xmlns="http://www.w3.org/2000/svg"
   xmlns:sodipodi="http://sodipodi.sourceforge.net/DTD/sodipodi-0.dtd"
   xmlns:inkscape="http://www.inkscape.org/namespaces/inkscape"
   height="30"
   id="svg2"
   version="1.1"
   viewBox="147 151 60 60"
   width="30"
   sodipodi:docname="accidental-double-sharp.svg"
   inkscape:version="0.91 r13725">
  <metadata
     id="metadata3495">
    <rdf:RDF>
      <cc:Work
         rdf:about="">
        <dc:format>image/svg+xml</dc:format>
        <dc:type
           rdf:resource="http://purl.org/dc/dcmitype/StillImage" />
        <dc:title></dc:title>
      </cc:Work>
    </rdf:RDF>
  </metadata>
  <sodipodi:namedview
     pagecolor="#ffffff"
     bordercolor="#666666"
     borderopacity="1"
     objecttolerance="10"
     gridtolerance="10"
     guidetolerance="10"
     inkscape:pageopacity="0"
     inkscape:pageshadow="2"
     inkscape:window-width="2560"
     inkscape:window-height="1377"
     id="namedview3493"
     showgrid="false"
     inkscape:zoom="22.627417"
     inkscape:cx="7.9923853"
     inkscape:cy="18.608559"
     inkscape:window-x="0"
     inkscape:window-y="0"
     inkscape:window-maximized="1"
     inkscape:current-layer="layer2" />
  <defs
     id="defs10" />
  <g
     id="layer2"
     style="display:inline"
     transform="translate(0,-637.6694)"
     inkscape:groupmode="layer"
     inkscape:label="Symbol">
    <g
       style="display:inline"
       id="g3047"
       transform="matrix(0.04438488,0,0,-0.04438488,167.0134,826.63649)">
      <path
         id="path3049"
         d="m 328,232 q -18,0 -29,-15.5 -11,-15.5 -11,-38.5 0,-52 40,-52 l 85,0 0,-133 -137,0 0,85 q 0,39 -54,39 -22,0 -38,-12 -16,-12 -16,-27 l 0,-85 -131,0 0,133 85,0 q 39,0 39,52 0,23 -11.5,38.5 Q 138,232 122,232 l -85,0 0,134 131,0 0,-85 q 0,-18 16,-29.5 16,-11.5 38,-11.5 54,0 54,41 l 0,85 137,0 0,-134 -85,0 z"
         inkscape:connector-curvature="0"
         style="fill:currentColor" />
    </g>
  </g>
</svg>
