<?xml version="1.0" encoding="UTF-8" standalone="no"?>
<svg
   xmlns:dc="http://purl.org/dc/elements/1.1/"
   xmlns:cc="http://creativecommons.org/ns#"
   xmlns:rdf="http://www.w3.org/1999/02/22-rdf-syntax-ns#"
   xmlns:svg="http://www.w3.org/2000/svg"
   xmlns="http://www.w3.org/2000/svg"
   xmlns:sodipodi="http://sodipodi.sourceforge.net/DTD/sodipodi-0.dtd"
   xmlns:inkscape="http://www.inkscape.org/namespaces/inkscape"
   height="30"
   id="svg2"
   version="1.1"
   viewBox="147 151 60 60"
   width="30"
   sodipodi:docname="accidental-sharp.svg"
   inkscape:version="0.91 r13725">
  <metadata
     id="metadata3495">
    <rdf:RDF>
      <cc:Work
         rdf:about="">
        <dc:format>image/svg+xml</dc:format>
        <dc:type
           rdf:resource="http://purl.org/dc/dcmitype/StillImage" />
        <dc:title></dc:title>
      </cc:Work>
    </rdf:RDF>
  </metadata>
  <sodipodi:namedview
     pagecolor="#ffffff"
     bordercolor="#666666"
     borderopacity="1"
     objecttolerance="10"
     gridtolerance="10"
     guidetolerance="10"
     inkscape:pageopacity="0"
     inkscape:pageshadow="2"
     inkscape:window-width="2560"
     inkscape:window-height="1377"
     id="namedview3493"
     showgrid="false"
     inkscape:zoom="22.627417"
     inkscape:cx="7.9923853"
     inkscape:cy="18.608559"
     inkscape:window-x="0"
     inkscape:window-y="0"
     inkscape:window-maximized="1"
     inkscape:current-layer="layer2" />
  <defs
     id="defs10" />
  <g
     id="layer2"
     style="display:inline"
     transform="translate(0,-637.6694)"
     inkscape:groupmode="layer"
     inkscape:label="Symbol">
    <g
       style="display:inline"
       id="g4"
       transform="matrix(0.08591388,0,0,-0.08591388,169.33741,826.48795)">
      <g
         id="g3077"
         transform="matrix(8.3797656,0,0,8.3797656,-1250.5172,-2087.9944)">
        <path
           d="m 168.53562,250.46195 -2.52975,-0.9899 0,-10.94393 -2.41977,-0.87992 0,10.94393 -7.53426,-2.91471 0,-10.94393 -2.41976,-0.93491 0,10.94393 -2.41977,-0.87991 0,5.27948 2.41977,0.93491 0,13.47368 -2.41977,-0.93491 0,5.27948 2.41977,0.93491 0,12.70376 2.41976,0.93491 0,-12.64876 7.53426,2.91471 0,12.64876 2.41977,0.87992 0,-12.59377 2.52975,0.9899 0,-5.38947 -2.52975,-0.9899 0,-13.41869 2.52975,0.9899 0,-5.38947 z m -4.94952,3.51965 0,13.41869 -7.53426,-2.91471 0,-13.47368 z"
           id="path3079"
           style="fill:currentColor"
           inkscape:connector-curvature="0" />
      </g>
    </g>
  </g>
</svg>
