<?xml version="1.0" encoding="UTF-8" standalone="no"?>
<svg
   xmlns:dc="http://purl.org/dc/elements/1.1/"
   xmlns:cc="http://creativecommons.org/ns#"
   xmlns:rdf="http://www.w3.org/1999/02/22-rdf-syntax-ns#"
   xmlns:svg="http://www.w3.org/2000/svg"
   xmlns="http://www.w3.org/2000/svg"
   xmlns:sodipodi="http://sodipodi.sourceforge.net/DTD/sodipodi-0.dtd"
   xmlns:inkscape="http://www.inkscape.org/namespaces/inkscape"
   height="30"
   id="svg2"
   version="1.1"
   viewBox="147 151 60 60"
   width="30"
   sodipodi:docname="accidental-flat.svg"
   inkscape:version="0.91 r13725">
  <metadata
     id="metadata3495">
    <rdf:RDF>
      <cc:Work
         rdf:about="">
        <dc:format>image/svg+xml</dc:format>
        <dc:type
           rdf:resource="http://purl.org/dc/dcmitype/StillImage" />
        <dc:title></dc:title>
      </cc:Work>
    </rdf:RDF>
  </metadata>
  <sodipodi:namedview
     pagecolor="#ffffff"
     bordercolor="#666666"
     borderopacity="1"
     objecttolerance="10"
     gridtolerance="10"
     guidetolerance="10"
     inkscape:pageopacity="0"
     inkscape:pageshadow="2"
     inkscape:window-width="2560"
     inkscape:window-height="1377"
     id="namedview3493"
     showgrid="false"
     inkscape:zoom="22.627417"
     inkscape:cx="7.9923853"
     inkscape:cy="18.608559"
     inkscape:window-x="0"
     inkscape:window-y="0"
     inkscape:window-maximized="1"
     inkscape:current-layer="layer2" />
  <defs
     id="defs10" />
  <g
     id="layer2"
     style="display:inline"
     transform="translate(0,-637.6694)"
     inkscape:groupmode="layer"
     inkscape:label="Symbol">
    <g
       style="display:inline"
       id="g3242"
       transform="matrix(0.68763065,0,0,-0.68763065,21.816845,1064.3538)">
      <path
         d="m 227.51061,358.03672 q 3.29233,0 4.96957,-2.04995 1.67723,-2.04996 1.67723,-5.65291 0,-2.73326 -1.83253,-5.15593 -1.83252,-2.42267 -6.64681,-7.26802 -4.81428,-4.84534 -8.47935,-9.38008 l 0,56.34262 2.67114,1.18028 0,-30.43869 q 3.04388,2.42268 7.64075,2.42268 z m 0.6212,-8.26194 q 0,4.03779 -3.04388,4.03779 -1.49087,0 -3.01282,-0.90074 -1.52193,-0.90073 -2.20525,-2.45372 l 0,-14.4118 q 3.7272,4.22417 5.99456,7.92028 2.26739,3.69614 2.26739,5.80819 z"
         id="path3244"
         style="fill:currentColor"
         inkscape:connector-curvature="0" />
    </g>
  </g>
</svg>
