<?xml version="1.0" encoding="UTF-8" standalone="no"?>
<svg
   xmlns:dc="http://purl.org/dc/elements/1.1/"
   xmlns:cc="http://creativecommons.org/ns#"
   xmlns:rdf="http://www.w3.org/1999/02/22-rdf-syntax-ns#"
   xmlns:svg="http://www.w3.org/2000/svg"
   xmlns="http://www.w3.org/2000/svg"
   xmlns:sodipodi="http://sodipodi.sourceforge.net/DTD/sodipodi-0.dtd"
   xmlns:inkscape="http://www.inkscape.org/namespaces/inkscape"
   height="30"
   id="svg2"
   version="1.1"
   viewBox="147 151 60 60"
   width="30"
   sodipodi:docname="duration-dot.svg"
   inkscape:version="0.91 r13725">
  <metadata
     id="metadata3495">
    <rdf:RDF>
      <cc:Work
         rdf:about="">
        <dc:format>image/svg+xml</dc:format>
        <dc:type
           rdf:resource="http://purl.org/dc/dcmitype/StillImage" />
        <dc:title />
      </cc:Work>
    </rdf:RDF>
  </metadata>
  <sodipodi:namedview
     pagecolor="#ffffff"
     bordercolor="#666666"
     borderopacity="1"
     objecttolerance="10"
     gridtolerance="10"
     guidetolerance="10"
     inkscape:pageopacity="0"
     inkscape:pageshadow="2"
     inkscape:window-width="2560"
     inkscape:window-height="1377"
     id="namedview3493"
     showgrid="false"
     inkscape:zoom="22.627417"
     inkscape:cx="-3.2334893"
     inkscape:cy="6.5527984"
     inkscape:window-x="0"
     inkscape:window-y="0"
     inkscape:window-maximized="1"
     inkscape:current-layer="layer2" />
  <defs
     id="defs10" />
  <g
     id="layer2"
     style="display:inline"
     transform="translate(0,-637.6694)"
     inkscape:groupmode="layer"
     inkscape:label="Symbol">
    <g
       id="g4"
       transform="matrix(0.06366653,0,0,-0.06366653,162.4414,843.93581)"
       style="fill:#8f8f8f;fill-opacity:1">
      <path
         d="m 38,59 c 0,34.666667 17,65.5 51,92.5 34,27 70,40.5 108,40.5 54,0 81,-24 81,-72 C 278,82.666667 261.66667,51.666667 229,27 196.33333,2.3333333 160.33333,-10 121,-10 99,-10 79.666667,-3.5 63,9.5 46.333333,22.5 38,39 38,59 Z"
         id="path6"
         style="fill:#8f8f8f;fill-opacity:1"
         sodipodi:nodetypes="ssssssss"
         inkscape:connector-curvature="0" />
    </g>
    <rect
       style="opacity:1;fill:#8f8f8f;fill-opacity:1;fill-rule:evenodd;stroke:none;stroke-width:1.77165353;stroke-linecap:butt;stroke-miterlimit:4;stroke-dasharray:none;stroke-dashoffset:0;stroke-opacity:1"
       id="rect4297"
       width="1.6985687"
       height="43.586994"
       x="178.44205"
       y="792.76636" />
    <path
       style="opacity:1;fill:#000000;fill-opacity:1;fill-rule:evenodd;stroke:none;stroke-width:2.98720026;stroke-linecap:butt;stroke-miterlimit:4;stroke-dasharray:none;stroke-dashoffset:0;stroke-opacity:1"
       id="path7839"
       sodipodi:type="arc"
       sodipodi:cx="185.06044"
       sodipodi:cy="838.14215"
       sodipodi:rx="3.1064806"
       sodipodi:ry="3.1948688"
       sodipodi:start="0"
       sodipodi:end="6.2799564"
       sodipodi:open="true"
       d="m 188.16692,838.14215 a 3.1064806,3.1948688 0 0 1 -3.10397,3.19487 3.1064806,3.1948688 0 0 1 -3.10899,-3.18971 3.1064806,3.1948688 0 0 1 3.09896,-3.20002 3.1064806,3.1948688 0 0 1 3.11398,3.18454" />
  </g>
</svg>
