<?xml version="1.0" encoding="UTF-8" standalone="no"?>
<svg
   xmlns:dc="http://purl.org/dc/elements/1.1/"
   xmlns:cc="http://creativecommons.org/ns#"
   xmlns:rdf="http://www.w3.org/1999/02/22-rdf-syntax-ns#"
   xmlns:svg="http://www.w3.org/2000/svg"
   xmlns="http://www.w3.org/2000/svg"
   xmlns:sodipodi="http://sodipodi.sourceforge.net/DTD/sodipodi-0.dtd"
   xmlns:inkscape="http://www.inkscape.org/namespaces/inkscape"
   height="30"
   id="svg2"
   version="1.1"
   viewBox="147 151 60 60"
   width="30"
   sodipodi:docname="node-type-ladspa.svg"
   inkscape:version="0.92.3 (2405546, 2018-03-11)">
  <metadata
     id="metadata3495">
    <rdf:RDF>
      <cc:Work
         rdf:about="">
        <dc:format>image/svg+xml</dc:format>
        <dc:type
           rdf:resource="http://purl.org/dc/dcmitype/StillImage" />
        <dc:title></dc:title>
      </cc:Work>
    </rdf:RDF>
  </metadata>
  <sodipodi:namedview
     pagecolor="#ffffff"
     bordercolor="#666666"
     borderopacity="1"
     objecttolerance="10"
     gridtolerance="10"
     guidetolerance="10"
     inkscape:pageopacity="0"
     inkscape:pageshadow="2"
     inkscape:window-width="2560"
     inkscape:window-height="1373"
     id="namedview3493"
     showgrid="false"
     inkscape:zoom="32"
     inkscape:cx="10.006355"
     inkscape:cy="14.56642"
     inkscape:window-x="0"
     inkscape:window-y="0"
     inkscape:window-maximized="1"
     inkscape:current-layer="layer2" />
  <defs
     id="defs10" />
  <g
     id="layer2"
     style="display:inline"
     transform="translate(0,-637.6694)"
     inkscape:groupmode="layer"
     inkscape:label="Symbol">
    <flowRoot
       xml:space="preserve"
       id="flowRoot1549"
       style="font-style:normal;font-variant:normal;font-weight:normal;font-stretch:normal;font-size:10px;line-height:125%;font-family:'DejaVu Serif';-inkscape-font-specification:'DejaVu Serif';text-align:start;letter-spacing:0px;word-spacing:0px;writing-mode:lr-tb;text-anchor:start;fill:#000000;fill-opacity:1;stroke:none;stroke-width:1.00000003pt;stroke-linecap:butt;stroke-linejoin:miter;stroke-opacity:1"
       transform="matrix(2.701507,0,0,2.701507,135.14643,786.61524)"><flowRegion
         id="flowRegion1551"><rect
           id="rect1553"
           width="23.8125"
           height="22.75"
           x="3.90625"
           y="5.4375" /></flowRegion><flowPara
         id="flowPara1555">LADSPA</flowPara><flowPara
         id="flowPara1557" /></flowRoot>    <g
       aria-label="LAD"
       transform="matrix(2.701507,0,0,2.701507,160.97959,803.49966)"
       style="font-style:normal;font-variant:normal;font-weight:normal;font-stretch:normal;font-size:10px;line-height:125%;font-family:'DejaVu Serif';-inkscape-font-specification:'DejaVu Serif';text-align:start;letter-spacing:0px;word-spacing:0px;writing-mode:lr-tb;text-anchor:start;fill:#000000;fill-opacity:1;stroke:none;stroke-width:1.00000003pt;stroke-linecap:butt;stroke-linejoin:miter;stroke-opacity:1"
       id="flowRoot1559">
      <path
         d="M -4.4482422,4.4414062 V 3.9238281 h 0.9277344 v -6.25 h -0.9277344 v -0.5224609 h 2.8466797 v 0.5224609 H -2.5292969 V 3.8408203 H 0.80078125 V 2.6201172 H 1.4013672 v 1.821289 z"
         id="path1590"
         inkscape:connector-curvature="0" />
      <path
         d="M 3.6425781,1.7998047 H 6.3183594 L 4.9804687,-1.6669922 Z M 1.5820312,4.4414062 V 3.9238281 H 2.2216797 L 4.8193359,-2.8486328 H 5.6396484 L 8.2421875,3.9238281 H 8.9599609 V 4.4414062 H 6.3085937 V 3.9238281 H 7.1191406 L 6.5087891,2.3222656 H 3.4423828 L 2.8320313,3.9238281 h 0.8007812 v 0.5175781 z"
         id="path1592"
         inkscape:connector-curvature="0" />
      <path
         d="m 11.337891,3.9238281 h 0.908203 q 1.420898,0 2.177734,-0.8105468 0.761719,-0.8105469 0.761719,-2.3242188 0,-1.51367187 -0.756836,-2.3144531 -0.756836,-0.8007813 -2.182617,-0.8007813 H 11.337891 Z M 9.4189453,4.4414062 V 3.9238281 H 10.34668 v -6.25 H 9.4189453 v -0.5224609 h 2.9003907 q 1.884766,0 2.93457,0.9619141 1.054688,0.96191401 1.054688,2.6757812 0,1.71875 -1.054688,2.6855469 -1.054687,0.9667968 -2.93457,0.9667968 z"
         id="path1594"
         inkscape:connector-curvature="0" />
    </g>
    <g
       aria-label="SPA"
       style="font-style:normal;font-variant:normal;font-weight:normal;font-stretch:normal;font-size:20px;line-height:125%;font-family:'DejaVu Serif';-inkscape-font-specification:'DejaVu Serif';text-align:start;letter-spacing:0px;word-spacing:0px;writing-mode:lr-tb;text-anchor:start;fill:#000000;fill-opacity:1;stroke:none;stroke-width:2.00000006pt;stroke-linecap:butt;stroke-linejoin:miter;stroke-opacity:1"
       id="text1577"
       transform="matrix(1.3507535,0,0,1.3507535,-62.083371,-278.68272)">
      <path
         d="m 158.02051,828.34125 v -3.32031 l 1.12304,0.01 q 0.0488,1.66016 0.95704,2.46094 0.91796,0.79101 2.7832,0.79101 1.73828,0 2.64648,-0.68359 0.91797,-0.69336 0.91797,-2.01172 0,-1.05469 -0.55664,-1.62109 -0.54687,-0.56641 -2.32422,-1.10352 l -1.92383,-0.57617 q -2.08984,-0.63477 -2.94921,-1.58203 -0.84961,-0.94727 -0.84961,-2.59766 0,-1.85547 1.31836,-2.88086 1.31836,-1.02539 3.70117,-1.02539 1.01562,0 2.22656,0.22461 1.21094,0.21485 2.57813,0.63477 v 3.10547 h -1.10352 q -0.16602,-1.54297 -1.03516,-2.22657 -0.85937,-0.69336 -2.62695,-0.69336 -1.54297,0 -2.35352,0.63477 -0.80078,0.625 -0.80078,1.82617 0,1.04492 0.60547,1.64063 0.60547,0.5957 2.56836,1.18164 l 1.80664,0.53711 q 1.98242,0.5957 2.82227,1.52343 0.84961,0.91797 0.84961,2.47071 0,2.11914 -1.35742,3.19336 -1.35743,1.07422 -4.04297,1.07422 -1.20118,0 -2.45118,-0.24414 -1.24023,-0.24415 -2.52929,-0.74219 z"
         style="stroke-width:2.00000006pt"
         id="path1583"
         inkscape:connector-curvature="0" />
      <path
         d="m 174.81738,821.6225 h 2.57813 q 1.45508,0 2.21679,-0.78125 0.76172,-0.79102 0.76172,-2.27539 0,-1.49414 -0.76172,-2.27539 -0.76171,-0.78125 -2.21679,-0.78125 h -2.57813 z m -3.83789,7.42187 v -1.03515 h 1.85547 v -12.5 h -1.85547 v -1.04493 h 6.89453 q 2.1875,0 3.4668,1.11329 1.2793,1.10351 1.2793,2.98828 0,1.875 -1.2793,2.98828 -1.2793,1.11328 -3.4668,1.11328 h -3.05664 v 5.3418 h 2.25586 v 1.03515 z"
         style="stroke-width:2.00000006pt"
         id="path1585"
         inkscape:connector-curvature="0" />
      <path
         d="m 185.52051,823.76117 h 5.35156 l -2.67578,-6.93359 z m -4.1211,5.2832 v -1.03515 h 1.2793 l 5.19531,-13.54493 h 1.64063 l 5.20508,13.54493 h 1.43554 v 1.03515 h -5.30273 v -1.03515 h 1.62109 l -1.2207,-3.20313 h -6.13281 l -1.22071,3.20313 h 1.60157 v 1.03515 z"
         style="stroke-width:2.00000006pt"
         id="path1587"
         inkscape:connector-curvature="0" />
    </g>
  </g>
</svg>
