<?xml version="1.0" encoding="UTF-8" standalone="no"?>
<svg
   xmlns:dc="http://purl.org/dc/elements/1.1/"
   xmlns:cc="http://creativecommons.org/ns#"
   xmlns:rdf="http://www.w3.org/1999/02/22-rdf-syntax-ns#"
   xmlns:svg="http://www.w3.org/2000/svg"
   xmlns="http://www.w3.org/2000/svg"
   xmlns:sodipodi="http://sodipodi.sourceforge.net/DTD/sodipodi-0.dtd"
   xmlns:inkscape="http://www.inkscape.org/namespaces/inkscape"
   height="30"
   id="svg2"
   version="1.1"
   viewBox="147 151 60 60"
   width="30"
   sodipodi:docname="pianoroll-split-segment.svg"
   inkscape:version="0.92.3 (2405546, 2018-03-11)">
  <metadata
     id="metadata3495">
    <rdf:RDF>
      <cc:Work
         rdf:about="">
        <dc:format>image/svg+xml</dc:format>
        <dc:type
           rdf:resource="http://purl.org/dc/dcmitype/StillImage" />
        <dc:title />
      </cc:Work>
    </rdf:RDF>
  </metadata>
  <sodipodi:namedview
     pagecolor="#ffffff"
     bordercolor="#666666"
     borderopacity="1"
     objecttolerance="10"
     gridtolerance="10"
     guidetolerance="10"
     inkscape:pageopacity="0"
     inkscape:pageshadow="2"
     inkscape:window-width="2560"
     inkscape:window-height="1373"
     id="namedview3493"
     showgrid="false"
     inkscape:zoom="32.000001"
     inkscape:cx="14.805775"
     inkscape:cy="13.993285"
     inkscape:window-x="0"
     inkscape:window-y="0"
     inkscape:window-maximized="1"
     inkscape:current-layer="layer2" />
  <defs
     id="defs10">
    <inkscape:path-effect
       effect="bspline"
       id="path-effect9248"
       is_visible="true"
       weight="33.333333"
       steps="2"
       helper_size="0"
       apply_no_weight="true"
       apply_with_weight="true"
       only_selected="false" />
  </defs>
  <g
     id="layer2"
     style="display:inline"
     transform="translate(0,-637.6694)"
     inkscape:groupmode="layer"
     inkscape:label="Symbol">
    <path
       style="fill:none;fill-opacity:0.75;fill-rule:evenodd;stroke:#000000;stroke-width:0.742;stroke-linecap:butt;stroke-linejoin:miter;stroke-opacity:1;stroke-miterlimit:4;stroke-dasharray:none"
       d="m 147.5491,790.6694 58.9018,0"
       id="path4608"
       inkscape:connector-curvature="0" />
    <path
       style="display:inline;fill:none;fill-opacity:0.75;fill-rule:evenodd;stroke:#000000;stroke-width:0.55646701pt;stroke-linecap:butt;stroke-linejoin:miter;stroke-opacity:1"
       d="m 147.5491,846.6694 58.9018,0"
       id="path4608-7"
       inkscape:connector-curvature="0" />
    <rect
       style="opacity:1;fill:#888888;fill-opacity:1;fill-rule:evenodd;stroke:none;stroke-width:1.06709313;stroke-linecap:round;stroke-linejoin:round;stroke-miterlimit:4;stroke-dasharray:none;stroke-dashoffset:0;stroke-opacity:1"
       id="rect4609"
       width="0.5"
       height="54.6255"
       x="151.1875"
       y="791.35663" />
    <rect
       style="display:inline;opacity:1;fill:#888888;fill-opacity:1;fill-rule:evenodd;stroke:none;stroke-width:1.06709313;stroke-linecap:round;stroke-linejoin:round;stroke-miterlimit:4;stroke-dasharray:none;stroke-dashoffset:0;stroke-opacity:1"
       id="rect4609-6"
       width="0.5"
       height="54.6255"
       x="161.41251"
       y="791.35663" />
    <rect
       style="display:inline;opacity:1;fill:#888888;fill-opacity:1;fill-rule:evenodd;stroke:none;stroke-width:1.06709313;stroke-linecap:round;stroke-linejoin:round;stroke-miterlimit:4;stroke-dasharray:none;stroke-dashoffset:0;stroke-opacity:1"
       id="rect4609-7"
       width="0.5"
       height="54.6255"
       x="171.6375"
       y="791.35663" />
    <rect
       style="display:inline;opacity:1;fill:#888888;fill-opacity:1;fill-rule:evenodd;stroke:none;stroke-width:1.06709313;stroke-linecap:round;stroke-linejoin:round;stroke-miterlimit:4;stroke-dasharray:none;stroke-dashoffset:0;stroke-opacity:1"
       id="rect4609-5"
       width="0.5"
       height="54.6255"
       x="181.8625"
       y="791.35663" />
    <rect
       style="display:inline;opacity:1;fill:#888888;fill-opacity:1;fill-rule:evenodd;stroke:none;stroke-width:1.06709313;stroke-linecap:round;stroke-linejoin:round;stroke-miterlimit:4;stroke-dasharray:none;stroke-dashoffset:0;stroke-opacity:1"
       id="rect4609-3"
       width="0.5"
       height="54.6255"
       x="192.08749"
       y="791.35663" />
    <rect
       style="display:inline;opacity:1;fill:#888888;fill-opacity:1;fill-rule:evenodd;stroke:none;stroke-width:1.06709313;stroke-linecap:round;stroke-linejoin:round;stroke-miterlimit:4;stroke-dasharray:none;stroke-dashoffset:0;stroke-opacity:1"
       id="rect4609-56"
       width="0.5"
       height="54.6255"
       x="202.3125"
       y="791.35663" />
    <path
       style="fill:none;fill-opacity:0.75;fill-rule:evenodd;stroke:#000000;stroke-width:1;stroke-linecap:butt;stroke-linejoin:miter;stroke-opacity:1;stroke-miterlimit:4;stroke-dasharray:none"
       d="m 177,790.9194 c 0,0 0,55.625 0,55.625"
       id="path9246"
       inkscape:connector-curvature="0"
       inkscape:path-effect="#path-effect9248"
       inkscape:original-d="m 177,790.9194 v 55.625"
       sodipodi:nodetypes="cc" />
    <path
       inkscape:connector-curvature="0"
       class="sharpcorners_een"
       d="m 175.16964,824.98633 z m 7.75922,-0.60258 c 2.00957,-1.58991 4.58713,-2.54704 7.39386,-2.54704 6.41068,0 11.62557,4.99231 11.62557,11.12936 0,6.13702 -5.21489,11.12933 -11.62557,11.12933 -6.41066,0 -11.62556,-4.99231 -11.62556,-11.12933 v -3.33722 l -1.50966,-1.98738 -1.50966,1.98738 v 3.33722 c 0,6.13702 -5.2149,11.12933 -11.62556,11.12933 -6.41068,0 -11.62557,-4.99231 -11.62557,-11.12933 0,-6.13705 5.21489,-11.12936 11.62557,-11.12936 2.80673,0 5.38429,0.95713 7.39386,2.54704 l 1.63421,-2.14957 -11.61395,-15.28693 c -5.38595,-7.0894 -0.0115,-10.82885 -0.0115,-10.82885 z m -5.89249,-0.95713 c 0.91675,0 1.66079,-0.71227 1.66079,-1.58991 0,-0.87763 -0.74404,-1.58989 -1.66079,-1.58989 -0.91676,0 -1.6608,0.71226 -1.6608,1.58989 0,0.87764 0.74404,1.58991 1.6608,1.58991 z m 13.28635,3.17981 c -3.66869,0 -6.64317,2.84753 -6.64317,6.35964 0,3.51209 2.97448,6.35961 6.64317,6.35961 3.66871,0 6.6432,-2.84752 6.6432,-6.35961 0,-3.51211 -2.97449,-6.35964 -6.6432,-6.35964 z m -26.27044,0 c -3.66871,0 -6.6432,2.84753 -6.6432,6.35964 0,3.51209 2.97449,6.35961 6.6432,6.35961 3.66869,0 6.64317,-2.84752 6.64317,-6.35961 0,-3.51211 -2.97448,-6.35964 -6.64317,-6.35964 z m 18.26873,-5.72364 10.58759,-13.93554 c 5.38595,-7.0894 0.0115,-10.82885 0.0115,-10.82885 l -14.70636,19.3587 z"
       style="fill:#111918;stroke-width:1.624964"
       id="path9305" />
  </g>
</svg>
