<?xml version="1.0" encoding="UTF-8" standalone="no"?>
<svg
   xmlns:dc="http://purl.org/dc/elements/1.1/"
   xmlns:cc="http://creativecommons.org/ns#"
   xmlns:rdf="http://www.w3.org/1999/02/22-rdf-syntax-ns#"
   xmlns:svg="http://www.w3.org/2000/svg"
   xmlns="http://www.w3.org/2000/svg"
   xmlns:sodipodi="http://sodipodi.sourceforge.net/DTD/sodipodi-0.dtd"
   xmlns:inkscape="http://www.inkscape.org/namespaces/inkscape"
   height="1000"
   width="1000"
   id="svg7069"
   version="1.1"
   inkscape:version="0.91 r13725"
   sodipodi:docname="track-visible.svg">
  <metadata
     id="metadata7077">
    <rdf:RDF>
      <cc:Work
         rdf:about="">
        <dc:format>image/svg+xml</dc:format>
        <dc:type
           rdf:resource="http://purl.org/dc/dcmitype/StillImage" />
        <dc:title></dc:title>
        <dc:source>http://uxrepo.com/icon/eye-by-elusive</dc:source>
      </cc:Work>
    </rdf:RDF>
  </metadata>
  <defs
     id="defs7075" />
  <sodipodi:namedview
     pagecolor="#ffffff"
     bordercolor="#666666"
     borderopacity="1"
     objecttolerance="10"
     gridtolerance="10"
     guidetolerance="10"
     inkscape:pageopacity="0"
     inkscape:pageshadow="2"
     inkscape:window-width="1014"
     inkscape:window-height="772"
     id="namedview7073"
     showgrid="false"
     inkscape:zoom="0.236"
     inkscape:cx="-133.47458"
     inkscape:cy="500"
     inkscape:window-x="516"
     inkscape:window-y="418"
     inkscape:window-maximized="0"
     inkscape:current-layer="svg7069" />
  <path
     d="M 25,500 Q 30.566406,453.61328 86.230469,396.09375 160.44922,320.01953 253.22266,273.63281 375.68359,216.11328 500,216.11328 q 129.88281,1.85547 246.77734,57.51953 98.33985,50.09766 166.99219,122.46094 Q 975,464.7461 975,500 969.43359,546.38672 913.76953,603.90625 839.55078,679.98047 746.77734,726.36719 624.31641,783.88672 500,783.88672 370.11719,782.03125 253.22266,726.36719 154.88281,676.26953 86.230469,603.90625 25,535.25391 25,500 Z m 250.48828,0 q 0,89.0625 65.86962,151.22023 65.86961,62.15773 158.64305,62.15773 92.77344,0 158.64305,-62.15773 Q 724.51362,589.0625 724.51362,500 q 0,-89.0625 -65.86962,-151.22023 -65.86961,-62.15772 -158.64305,-62.15772 -92.77344,0 -158.64305,62.15772 Q 275.48828,410.9375 275.48828,500 Z m 81.64063,-0.92821 q 0,-56.59227 41.74852,-96.48437 41.74852,-39.89211 101.12352,-39.89211 59.375,0 101.12352,39.89211 41.74852,39.8921 41.74852,96.48437 0,56.59227 -41.74852,97.41164 -41.74852,40.81936 -101.12352,40.82031 -59.375,9.5e-4 -101.12352,-40.82031 -41.74852,-40.82127 -41.74852,-97.41164 z"
     id="path7071"
     inkscape:connector-curvature="0"
     style="fill:#000000" />
</svg>
