<?xml version="1.0" encoding="UTF-8" standalone="no"?>
<svg
   xmlns:dc="http://purl.org/dc/elements/1.1/"
   xmlns:cc="http://creativecommons.org/ns#"
   xmlns:rdf="http://www.w3.org/1999/02/22-rdf-syntax-ns#"
   xmlns:svg="http://www.w3.org/2000/svg"
   xmlns="http://www.w3.org/2000/svg"
   xmlns:sodipodi="http://sodipodi.sourceforge.net/DTD/sodipodi-0.dtd"
   xmlns:inkscape="http://www.inkscape.org/namespaces/inkscape"
   height="1000"
   width="1000"
   id="svg7127"
   version="1.1"
   inkscape:version="0.91 r13725"
   sodipodi:docname="track-not-visible.svg">
  <metadata
     id="metadata7135">
    <rdf:RDF>
      <cc:Work
         rdf:about="">
        <dc:format>image/svg+xml</dc:format>
        <dc:type
           rdf:resource="http://purl.org/dc/dcmitype/StillImage" />
        <dc:title></dc:title>
        <dc:source>http://uxrepo.com/icon/eye-off-by-elusive</dc:source>
        <dc:creator>
          <cc:Agent>
            <dc:title>Aristeides Stathopoulos</dc:title>
          </cc:Agent>
        </dc:creator>
      </cc:Work>
    </rdf:RDF>
  </metadata>
  <defs
     id="defs7133" />
  <sodipodi:namedview
     pagecolor="#ffffff"
     bordercolor="#666666"
     borderopacity="1"
     objecttolerance="10"
     gridtolerance="10"
     guidetolerance="10"
     inkscape:pageopacity="0"
     inkscape:pageshadow="2"
     inkscape:window-width="1266"
     inkscape:window-height="623"
     id="namedview7131"
     showgrid="false"
     inkscape:zoom="0.236"
     inkscape:cx="-194.91525"
     inkscape:cy="500"
     inkscape:window-x="1380"
     inkscape:window-y="274"
     inkscape:window-maximized="0"
     inkscape:current-layer="svg7127" />
  <path
     d="m 50,521.63084 q 5.273432,-43.94527 58.00775,-98.4374 70.31243,-72.07024 158.20297,-116.01551 116.01551,-54.49214 233.78883,-54.49214 26.36716,0 52.73432,1.75781 l 66.79681,-116.0155 q 8.78905,-14.06249 21.09373,-15.8203 3.51562,0 7.03124,1.75781 l 45.70308,28.12497 q 15.8203,7.03124 1.75781,29.88278 l -50.97651,91.40616 -42.18746,70.31243 -36.91402,65.039 -130.078,224.99977 -36.91402,65.039 -42.18746,72.07024 -50.97651,89.64835 q -14.06249,22.85154 -28.12497,14.06249 L 229.2967,846.82582 q -14.06249,-7.03124 0,-29.88278 l 43.94526,-77.34367 -7.03124,-3.51562 Q 173.04675,688.62286 108.00775,620.06824 50,555.02924 50,521.63084 Z m 237.30445,0 q 0,66.79681 42.18746,119.53113 l 43.94527,-75.58586 q -8.78906,-21.09373 -8.78906,-43.94527 0,-45.70308 30.76214,-81.73865 30.76214,-36.03557 76.46522,-44.82463 l 43.94527,-75.58586 -15.8203,0 q -87.89054,0 -150.29327,58.88621 -62.40273,58.88621 -62.40273,143.26113 z m 159.96078,265.42942 36.91402,-63.28119 15.8203,0 q 87.89054,0 150.29327,-58.88621 62.40273,-58.88621 62.40273,-143.26112 0,-66.79681 -42.18746,-119.53113 l 56.24995,-98.4374 q 1.75781,1.75781 3.51562,2.63626 1.75781,0.87846 3.51562,0.87936 93.16397,47.46089 158.20297,116.01551 Q 950,488.23333 950,521.63174 q -5.27343,43.94527 -58.00775,98.4374 -70.31243,72.07024 -158.20297,116.01551 -116.01551,54.49213 -233.78883,54.49213 -22.85154,0 -52.73432,-3.51562 z m 80.85929,-138.86705 98.4374,-170.50764 q 8.78906,22.85154 8.78906,43.94527 0,45.70308 -30.76214,80.85929 -30.76214,35.15622 -76.46522,45.70308 z"
     id="path7129"
     style="fill:#969696;fill-opacity:1"
     inkscape:connector-curvature="0" />
</svg>
