<?xml version="1.0" encoding="UTF-8" standalone="no"?>
<svg
   xmlns:dc="http://purl.org/dc/elements/1.1/"
   xmlns:cc="http://creativecommons.org/ns#"
   xmlns:rdf="http://www.w3.org/1999/02/22-rdf-syntax-ns#"
   xmlns:svg="http://www.w3.org/2000/svg"
   xmlns="http://www.w3.org/2000/svg"
   xmlns:sodipodi="http://sodipodi.sourceforge.net/DTD/sodipodi-0.dtd"
   xmlns:inkscape="http://www.inkscape.org/namespaces/inkscape"
   height="30"
   id="svg2"
   version="1.1"
   viewBox="147 151 60 60"
   width="30"
   sodipodi:docname="track-type-sample.svg"
   inkscape:version="0.91 r13725">
  <metadata
     id="metadata3495">
    <rdf:RDF>
      <cc:Work
         rdf:about="">
        <dc:format>image/svg+xml</dc:format>
        <dc:type
           rdf:resource="http://purl.org/dc/dcmitype/StillImage" />
        <dc:title></dc:title>
      </cc:Work>
    </rdf:RDF>
  </metadata>
  <sodipodi:namedview
     pagecolor="#ffffff"
     bordercolor="#666666"
     borderopacity="1"
     objecttolerance="10"
     gridtolerance="10"
     guidetolerance="10"
     inkscape:pageopacity="0"
     inkscape:pageshadow="2"
     inkscape:window-width="2560"
     inkscape:window-height="1371"
     id="namedview3493"
     showgrid="false"
     inkscape:zoom="11.313709"
     inkscape:cx="-48.724404"
     inkscape:cy="25.444586"
     inkscape:window-x="0"
     inkscape:window-y="0"
     inkscape:window-maximized="1"
     inkscape:current-layer="layer2" />
  <defs
     id="defs10" />
  <g
     id="layer2"
     style="display:inline"
     transform="translate(0,-637.6694)"
     inkscape:groupmode="layer"
     inkscape:label="Symbol">
    <path
       style="fill:none;fill-opacity:0.75;fill-rule:evenodd;stroke:#000000;stroke-width:0.55646701pt;stroke-linecap:butt;stroke-linejoin:miter;stroke-opacity:1"
       d="m 147.5491,817.68555 58.9018,0"
       id="path4608"
       inkscape:connector-curvature="0" />
    <path
       inkscape:connector-curvature="0"
       d="m 149.557,817.10746 0.0854,-0.60813 c 0.10677,-3.42745 0.1605,-5.14457 0.26829,-8.58521 0.31939,-2.54109 0.48053,-3.81998 0.80306,-6.38953 0.10677,0.21805 0.16048,0.32883 0.26786,0.54775 0.21487,-1.63682 0.32336,-2.46079 0.5381,-4.10874 0.10852,4.61709 0.16244,6.93087 0.27042,11.56457 0.10721,-0.004 0.16049,-0.01 0.26915,-0.0142 l 0.2704,-0.59482 c 0.10808,-3.96128 0.16048,-5.9458 0.26916,-9.91934 0.2166,-2.12083 0.32546,-3.1851 0.54082,-5.31616 0.10982,5.12934 0.16332,7.69889 0.26998,12.84413 0.21792,-0.0114 0.32713,-0.0189 0.54377,-0.0305 0.10983,3.28133 0.16375,4.92293 0.27376,8.21314 0.3263,-0.23937 0.48787,-0.35998 0.81586,-0.60075 0.21747,-4.95705 0.32671,-7.44149 0.54335,-12.422 0.10983,-0.007 0.16288,-0.01 0.27291,-0.0165 0,3.31364 8.5e-4,4.97232 8.5e-4,8.28551 0.21955,0.70473 0.3286,1.05721 0.54668,1.76492 0.32799,-0.48061 0.49083,-0.72227 0.81944,-1.20467 l 0,0.59551 c 0.10983,0.236 0.16377,0.35453 0.27377,0.5905 0.10983,-0.2394 0.16486,-0.36069 0.27503,-0.59961 0.10984,-5.00554 0.16421,-7.50842 0.27378,-12.51871 0.21998,-2.39365 0.32902,-3.59151 0.54816,-5.98926 0.10983,0.23246 0.16376,0.34884 0.27377,0.583 0.1094,7.3969 0.16573,11.09717 0.27504,18.50182 0.10982,-0.23963 0.16332,-0.35954 0.27335,-0.59894 l 0,-1.19556 c 0.32945,-0.48197 0.49459,-0.72227 0.82363,-1.20421 0.21957,-6.4644 0.33197,-9.69863 0.55153,-16.16781 0.10918,0.23624 0.16333,0.35591 0.27294,0.59348 0.11113,5.98583 0.16574,8.97864 0.27544,14.96652 0.21999,-0.71953 0.3286,-1.07952 0.55028,-1.79814 0.10939,0.23962 0.16376,0.35794 0.27377,0.59757 0.10939,-0.23963 0.16616,-0.35863 0.27608,-0.59895 0.21957,-2.63439 0.32818,-3.95217 0.54817,-6.5868 0.22041,-2.87288 0.33049,-4.30828 0.55091,-7.17822 0.10983,7.42602 0.16637,11.13815 0.27503,18.56054 0.32986,0.71952 0.4948,1.08223 0.82425,1.80155 0.11028,0.23802 0.16442,0.35886 0.27419,0.59959 0.10939,-0.24096 0.16485,-0.35793 0.27503,-0.59618 l 0,-1.79338 c 0.22062,-2.62689 0.32989,-3.93919 0.5484,-6.55927 l 0,1.1917 c 0.10982,0.24101 0.16681,0.36364 0.27417,0.60394 0.21937,-2.14242 0.32946,-3.21283 0.54799,-5.34892 l 0,7.74621 c 0.22019,0.95826 0.32858,1.4368 0.54775,2.39298 0.10984,10e-4 0.16486,0.003 0.27502,0.004 0.10939,-0.23625 0.16375,-0.35385 0.27461,-0.58936 l 0,-2.97028 c 0.21727,-0.70633 0.32714,-1.05949 0.54586,-1.76151 0.21914,-1.41447 0.32608,-2.1208 0.54545,-3.52847 l 0,8.28619 c 0.43662,1.19443 0.65638,1.79131 1.08983,2.97598 0.21914,-0.93731 0.32672,-1.40629 0.54481,-2.34019 0.43493,-4.21887 0.65154,-6.3183 1.08562,-10.48778 l 0,1.75445 c 0.10677,2.11241 0.16334,3.16916 0.27063,5.27541 0.21682,1.6459 0.32357,2.46557 0.5408,4.10167 0.21684,-0.92296 0.324,-1.38351 0.53917,-2.30012 0.21616,-0.4535 0.32354,-0.67994 0.54017,-1.12867 0,-3.46749 -0.002,-5.20056 -0.002,-8.66666 0.32232,-1.57878 0.48473,-2.36317 0.80767,-3.92262 l 0,0.5746 c 0.10743,4.15242 0.15962,6.22751 0.26599,10.36468 0.10808,-0.22159 0.15962,-0.33383 0.26704,-0.55387 0.10677,0.23894 0.1605,0.35863 0.26851,0.5962 l 0,2.28349 c 0.21443,0.69928 0.32085,1.04836 0.53348,1.74149 0.10677,-0.22158 0.16114,-0.33221 0.26599,-0.55387 0,-0.67994 9.7e-4,-1.01991 9.7e-4,-1.70074 0.10634,-5.66386 0.15875,-8.49076 0.26537,-14.1314 l 0,1.13231 c 0.21245,5.70049 0.31832,8.5381 0.5299,14.18602 0.21311,-0.43623 0.31872,-0.6524 0.53074,-1.08362 0.31727,-2.88813 0.47483,-4.32149 0.79105,-7.16366 l 0,1.66912 c 0.10589,3.12888 0.15721,4.68969 0.26389,7.8049 0.4194,1.58016 0.62781,2.36407 1.04657,3.91124 0.10328,-0.21663 0.15394,-0.32474 0.25822,-0.53999 l 0,-6.5627 c 0.21028,-0.41461 0.31473,-0.62053 0.52149,-1.02808 l 0,0.54407 c 0.10502,0.22844 0.15547,0.34361 0.25904,0.57275 0.10351,-0.20574 0.15504,-0.30537 0.25865,-0.5095 0.20678,-2.78275 0.31097,-4.16561 0.5173,-6.91106 l 0,1.60972 c 0.20634,5.40762 0.30948,8.09231 0.51371,13.42666 0.10262,-0.21141 0.15416,-0.31516 0.25591,-0.52405 0.10219,-3.39559 0.15459,-5.08792 0.25676,-8.45869 0.40782,-1.84252 0.61203,-2.74887 1.01734,-4.53107 0.20438,4.42731 0.3034,6.62366 0.50614,10.98318 0.10045,-0.20007 0.15087,-0.29924 0.2513,-0.49654 0.30171,0.22986 0.45258,0.3427 0.75303,0.56981 0.29919,-6.49283 0.44941,-9.69932 0.7482,-16.01897 0.098,0.23688 0.14695,0.3552 0.24665,0.59139 l 0,15.50176 c 0.1987,0.61554 0.29668,0.91953 0.49208,1.52393 0.10044,-0.1932 0.14848,-0.28876 0.24813,-0.47992 l 0,-1.47957 c 0.0971,-1.17371 0.14718,-1.75946 0.24499,-2.92202 0.29291,0.24031 0.44167,0.36068 0.73266,0.59619 0.29078,-0.53816 0.4366,-0.80325 0.72362,-1.32117 l 0,-1.42974 c 0.29078,0.25259 0.43472,0.37887 0.72045,0.62647 0.28721,-3.87481 0.42967,-5.779 0.71417,-9.51706 l 0,1.38333 c 0.0942,1.32867 0.14018,1.98927 0.23469,3.30433 0.1893,-1.76584 0.28384,-2.63737 0.47189,-4.35677 l 0,7.69067 c 0.188,0.77481 0.28071,1.15757 0.46729,1.91647 0.0919,0.0212 0.13625,0.033 0.23195,0.0548 l 0,0.88837 c 0.0926,0.19723 0.13757,0.2956 0.23092,0.49153 0.0926,-0.15774 0.13865,-0.23554 0.23195,-0.39049 l 0,-4.38363 c 0.18364,-0.63715 0.27567,-0.95208 0.45825,-1.57103 l 0,2.16383 c 0.18364,4.73337 0.27441,7.06877 0.45658,11.6747 0.18298,-10e-4 0.27229,-0.003 0.45131,-0.004 0.36181,-3.19829 0.54144,-4.75272 0.89507,-7.76054 0.17905,0.69928 0.26851,1.04333 0.44415,1.72351 0.26411,-2.35475 0.39501,-3.50436 0.65723,-5.741 l 0,5.48955 c 0.17402,1.29682 0.26095,1.93263 0.43282,3.18622 0.0863,-0.14401 0.12992,-0.2152 0.21551,-0.35566 0,-1.53031 6.1e-4,-2.29468 6.1e-4,-3.82294 0.1712,0.0491 0.25698,0.0749 0.42716,0.12391 0.16945,-1.29978 0.25633,-1.93875 0.42568,-3.19007 0.16747,3.46679 0.25254,5.16938 0.41939,8.50965 0.16682,-1.14529 0.25127,-1.70689 0.41686,-2.80576 l 0,1.06337 c 0.0825,0.29696 0.12532,0.44531 0.20655,0.73614 0.0831,-0.12961 0.12271,-0.19321 0.20394,-0.32064 0,-1.25064 0.002,-1.87574 0.002,-3.12682 0.16376,-0.22702 0.24602,-0.33771 0.40929,-0.55319 l 0,-1.70075 c 0.16355,-1.15348 0.24289,-1.7185 0.40276,-2.81531 0.16225,4.22661 0.24205,6.29394 0.40069,10.33623 0.15917,-1.29409 0.23974,-1.92489 0.39838,-3.15801 0.15743,0.29218 0.23595,0.43418 0.39186,0.71588 0.0781,-0.10881 0.11573,-0.16104 0.19367,-0.26465 l 0,-1.22628 c 0.2332,-0.41734 0.34837,-0.6176 0.57591,-0.99622 0.15218,-2.41164 0.23027,-3.584 0.38049,-5.85978 0.0753,3.84637 0.11398,5.74416 0.188,9.48473 0.0749,-0.0996 0.11246,-0.15017 0.18538,-0.24782 0.15023,-3.20168 0.22649,-4.7568 0.37212,-7.76599 0.14564,-0.2015 0.2206,-0.29561 0.36621,-0.47357 l 0,4.45145 c 0.14587,0.91681 0.21617,1.36124 0.35991,2.22458 0.2153,-0.22419 0.32042,-0.32949 0.53263,-0.52338 l 0,-1.68551 c 0.13997,-1.35486 0.21028,-2.00724 0.35027,-3.25904 0.13668,3.94604 0.20721,5.84886 0.34331,9.50886 0.0692,0 0.1024,-10e-4 0.1714,-0.003 0.0677,-0.0874 0.10088,-0.13075 0.16747,-0.21591 l 0,-0.21402 c 0.0664,-0.25555 0.10154,-0.37889 0.16945,-0.62238 0.13297,-0.90907 0.20088,-1.34258 0.33301,-2.17134 0.13166,-0.10312 0.19651,-0.15157 0.32672,-0.24096 0.12925,0.21803 0.19237,0.32336 0.32084,0.52746 0.0633,-0.0449 0.096,-0.0664 0.15852,-0.10668 l 0,-1.06769 c 0.12708,-0.12961 0.19062,-0.18754 0.31454,-0.29286 l 0,11.12131 c -0.062,0.01 -0.0926,0.0114 -0.15524,0.0165 -0.126,-0.82168 -0.18867,-1.2595 -0.31791,-2.18793 -0.12774,-0.0508 -0.19193,-0.0798 -0.32294,-0.14757 -0.12969,0.0874 -0.19302,0.13004 -0.32481,0.2152 -0.13211,-1.44157 -0.19936,-2.19841 -0.33304,-3.77695 -0.20198,-0.22798 -0.30213,-0.34977 -0.50823,-0.61009 -0.0686,0.0923 -0.10219,0.13759 -0.17119,0.23531 0,1.18193 6.3e-4,1.7747 6.3e-4,2.95844 -0.13821,2.42233 -0.20918,3.67957 -0.34708,6.28144 l 0,-0.23735 c -0.13954,-1.65613 -0.21028,-2.51742 -0.35174,-4.30625 -0.14126,0.36773 -0.21463,0.55819 -0.35676,0.94369 -0.0723,-0.0601 -0.10809,-0.0906 -0.1797,-0.1542 -0.14498,1.93444 -0.21748,2.9309 -0.36432,4.98391 -0.14498,-2.20272 -0.21914,-3.34186 -0.36832,-5.69184 -0.14717,-1.47205 -0.22103,-2.23095 -0.37148,-3.79424 -0.0742,0.1232 -0.11266,0.18279 -0.188,0.3081 -0.0749,4.02091 -0.11266,6.06002 -0.18996,10.1931 l 0,-0.87198 c -0.0746,-0.75116 -0.11398,-1.13392 -0.19062,-1.90758 -0.076,0.0491 -0.1131,0.0742 -0.19062,0.12391 l 0,-0.89408 c -0.0758,-0.19438 -0.11486,-0.29331 -0.19237,-0.49493 -0.15328,-1.12525 -0.23155,-1.70483 -0.38869,-2.89449 -0.15524,0.42438 -0.23262,0.64034 -0.38997,1.08089 -0.15852,-1.97405 -0.23783,-2.98643 -0.39627,-5.05857 -0.0806,0.13502 -0.12009,0.20291 -0.20088,0.34135 -0.0799,4.21955 -0.11966,6.35286 -0.20198,10.66847 -0.23932,-1.43588 -0.36181,-2.1809 -0.60743,-3.72439 -0.16311,-1.57924 -0.24437,-2.38637 -0.41054,-4.03502 -0.16616,0.59734 -0.24814,0.90089 -0.41559,1.51984 l 0,-1.07269 c -0.082,-1.12708 -0.12424,-1.69779 -0.20722,-2.84719 -0.0845,0.15254 -0.12709,0.22915 -0.21027,0.38573 0,0.43826 9.7e-4,0.65582 9.7e-4,1.09317 -0.0836,3.5198 -0.1273,5.29613 -0.21093,8.88169 -0.16944,-1.08634 -0.25635,-1.6418 -0.42571,-2.77433 -0.0851,0.1854 -0.12663,0.2767 -0.21223,0.46374 -0.0868,0.0366 -0.12926,0.054 -0.21463,0.0894 -0.0863,-2.1042 -0.12993,-3.16506 -0.21618,-5.30863 -0.0851,0.17097 -0.12927,0.25691 -0.21595,0.42917 -0.17337,4.39137 -0.26158,6.62572 -0.43471,11.16181 l 0,-1.18692 c -0.0889,-2.00568 -0.13101,-3.0183 -0.21999,-5.05811 -0.35087,-0.34746 -0.528,-0.53043 -0.88496,-0.91043 -0.088,-1.78245 -0.13494,-2.67902 -0.22294,-4.48899 -0.1797,-1.62929 -0.26977,-2.4567 -0.44942,-4.13652 -0.18035,0.004 -0.27188,0.004 -0.45279,0.01 -0.0915,0.17216 -0.13603,0.25963 -0.22754,0.43556 -0.18341,5.84655 -0.27417,8.8116 -0.45781,14.81746 0,-0.52223 -9.7e-4,-0.78302 -9.7e-4,-1.30525 -0.18408,-1.31526 -0.27608,-1.98293 -0.45909,-3.33711 -0.18603,0.76437 -0.27798,1.1519 -0.46393,1.93218 l 0,-0.89316 c -0.0933,-0.1478 -0.14062,-0.22347 -0.23469,-0.37388 -0.18668,2.75639 -0.27944,4.15107 -0.46726,6.97322 l 0,-1.36397 c -0.0946,-0.8695 -0.14258,-1.3057 -0.23722,-2.18566 -0.0946,0.21875 -0.14062,0.32859 -0.23471,0.55091 l 0,0.9209 c -0.28446,-3.56783 -0.42691,-5.38327 -0.71414,-9.08081 -0.28576,1.55101 -0.42947,2.33767 -0.72047,3.93647 l 0,-1.42905 c -0.19062,-0.3379 -0.28723,-0.50744 -0.48199,-0.85377 -0.0967,0.0189 -0.1452,0.0276 -0.24163,0.0463 -0.29287,0.25122 -0.43995,0.3766 -0.73263,0.63191 l 0,-0.48992 c -0.19718,-2.31968 -0.29479,-3.49115 -0.49293,-5.85499 -0.0961,0.20503 -0.14586,0.30812 -0.24477,0.51519 -0.0991,6.1804 -0.14717,9.28311 -0.24729,15.51972 -0.19586,0.47216 -0.29753,0.70905 -0.49607,1.1869 -0.0994,-4.00016 -0.14826,-6.00881 -0.25025,-10.04358 -0.20001,-1.98929 -0.29918,-2.99167 -0.49984,-5.01781 -0.10109,0.21426 -0.15022,0.32245 -0.2513,0.53769 -0.10022,0.0114 -0.14935,0.0165 -0.25044,0.0272 l 0,-1.03174 c -0.10066,-0.19629 -0.15023,-0.29559 -0.25128,-0.49447 -0.1024,0.21472 -0.15154,0.32062 -0.25319,0.53724 l 0,12.98293 c -0.20152,0.88952 -0.30382,1.33756 -0.507,2.23778 0,-1.67413 -9.8e-4,-2.51333 -9.8e-4,-4.18702 -0.30317,-0.34316 -0.4559,-0.51926 -0.76227,-0.87586 -0.20632,-5.24651 -0.30653,-7.89093 -0.51266,-13.21253 -0.10218,0.21662 -0.15327,0.32678 -0.25822,0.54431 0,1.49778 0.002,2.24484 0.002,3.7433 -0.20635,5.57874 -0.31055,8.38768 -0.51584,14.04037 l 0,-1.6154 c -0.10351,-1.48231 -0.15612,-2.22437 -0.25969,-3.71736 -0.31012,-0.80532 -0.4639,-1.21399 -0.77803,-2.03707 -0.20634,-3.23788 -0.312,-4.86694 -0.51958,-8.14556 -0.10504,0.007 -0.15656,0.01 -0.26159,0.0165 -0.10329,0.22583 -0.15721,0.33838 -0.26139,0.56616 -0.10481,-0.21426 -0.15808,-0.32107 -0.26222,-0.53725 -0.10481,0.22797 -0.15656,0.34088 -0.26137,0.57002 l 0,1.10843 c -0.21092,5.34207 -0.31705,8.02587 -0.52822,13.42232 l 0,-1.67138 c -0.20939,-2.86173 -0.31516,-4.30011 -0.52525,-7.19211 -0.31873,0.70633 -0.4778,1.06224 -0.79675,1.77788 l 0,1.69438 c -0.21158,3.4172 -0.31894,5.13229 -0.53199,8.57905 -0.10481,-5.65222 -0.15896,-8.48484 -0.266,-14.16189 -0.21246,2.97233 -0.31914,4.46669 -0.53346,7.46336 l 0,-3.42607 c -0.21419,-0.66263 -0.31999,-0.99555 -0.53557,-1.66501 -0.21377,4.37677 -0.31977,6.57451 -0.53598,10.98363 l 0,-1.72761 c -0.10809,-0.9052 -0.16028,-1.35828 -0.26832,-2.266 -0.32167,-4.57272 -0.48471,-6.87285 -0.80807,-11.49629 -0.21486,1.63406 -0.32231,2.45326 -0.53913,4.0962 -0.21726,0.94504 -0.32399,1.42018 -0.54084,2.37022 -0.21595,1.65137 -0.32482,2.48012 -0.54101,4.13877 0,-0.23413 -0.002,-0.35135 -0.002,-0.58504 -0.10743,-0.22514 -0.16333,-0.33723 -0.27126,-0.56253 -0.21814,-2.55906 -0.32398,-3.84476 -0.5423,-6.42001 -0.21813,-1.40059 -0.32544,-2.10123 -0.54481,-3.50912 -0.10742,0.23961 -0.16354,0.35795 -0.27335,0.59824 -0.21704,-0.46512 -0.32545,-0.69928 -0.54269,-1.16735 -0.11071,0.23894 -0.16377,0.35931 -0.27357,0.59825 -0.10983,5.44856 -0.16333,8.17514 -0.2725,13.63349 l 0,-3.55395 c -0.32716,-0.92865 -0.49294,-1.394 -0.81859,-2.32992 l 0,-7.12909 c -0.2202,-0.47013 -0.32946,-0.70587 -0.54943,-1.17851 -0.10961,0.24031 -0.16268,0.36069 -0.27357,0.5996 -0.21851,5.48387 -0.32797,8.22839 -0.54712,13.72433 l 0,-1.78836 c -0.21914,-0.46765 -0.32987,-0.70133 -0.54923,-1.17284 -0.10939,0.004 -0.16485,0.007 -0.2744,0.01 -0.21914,-4.76999 -0.32967,-7.16093 -0.549,-11.94117 -0.2198,0.71997 -0.32967,1.07928 -0.54902,1.79928 l 0,-1.19854 c -0.11006,-0.23757 -0.16574,-0.35568 -0.27524,-0.59482 -0.10961,0.2396 -0.16333,0.36089 -0.27421,0.6012 l 0,16.75965 c -0.21996,0.72159 -0.33028,1.08362 -0.55111,1.8052 l 0,-1.79678 c -0.10852,-0.71815 -0.1653,-1.07611 -0.27483,-1.79336 -0.32859,-3.35144 -0.49521,-5.02987 -0.82425,-8.38313 -0.21872,0.71862 -0.32902,1.07795 -0.54816,1.7961 l 0,-1.7986 c -0.11071,-0.23984 -0.16574,-0.35953 -0.27565,-0.59847 -0.21916,5.02829 -0.32904,7.54186 -0.5482,12.56582 -0.10873,-0.24188 -0.16616,-0.36431 -0.27565,-0.60576 l 0,-10.77313 c -0.21999,-0.95984 -0.33071,-1.4402 -0.55111,-2.3998 -0.10918,-0.003 -0.16333,-0.003 -0.27294,-0.004 -0.21955,-0.9612 -0.32946,-1.44042 -0.54859,-2.39933 -0.10919,0.23687 -0.16529,0.35543 -0.27503,0.5921 l 0,15.52175 c -0.21956,-0.0114 -0.32904,-0.0165 -0.54901,-0.0283 0,-1.6707 9.7e-4,-2.50379 9.7e-4,-4.17449 -0.21913,-0.72614 -0.32859,-1.08887 -0.54773,-1.8134 -0.10983,-3.34119 -0.16486,-5.01031 -0.27503,-8.34511 -0.10984,0.23482 -0.16421,0.35133 -0.27378,0.58503 -0.10873,-0.004 -0.16376,-0.004 -0.27167,-0.01 l 0,-1.78154 c -0.10983,-0.71543 -0.16486,-1.07337 -0.27462,-1.78787 -0.1083,-0.003 -0.16441,-0.004 -0.27335,-0.007 -0.10874,0.23387 -0.16398,0.35086 -0.27378,0.58479 -0.21872,4.7327 -0.32713,7.09654 -0.54668,11.81035 -0.10917,-0.24599 -0.16376,-0.36955 -0.27167,-0.61554 l 0,-1.1792 c -0.10874,-5.91391 -0.1642,-8.86758 -0.27377,-14.76901 -0.10721,0.23483 -0.16179,0.35114 -0.27085,0.58506 -0.10982,-0.23689 -0.16376,-0.3559 -0.2725,-0.59255 -0.10874,-0.003 -0.16245,-0.003 -0.27041,-0.004 -0.21791,4.93407 -0.32671,7.39349 -0.54417,12.30071 l 0,-1.75811 c -0.10983,-0.47648 -0.16289,-0.71474 -0.27335,-1.19009 -0.21618,4.66805 -0.3238,6.99617 -0.54126,11.63442 -0.21485,-3.29727 -0.32335,-4.94021 -0.53998,-8.21952 -0.21617,-2.34722 -0.32419,-3.52028 -0.53828,-5.85226 -0.2166,2.30424 -0.32379,3.45383 -0.53997,5.7419 -0.2153,3.21216 -0.32169,4.8128 -0.53641,8.00016 -0.10808,-0.019 -0.16181,-0.0275 -0.2679,-0.0449 -0.3553,-7.66519 -0.86559,-23.02686 -0.86559,-23.02686 z"
       id="path4339"
       sodipodi:nodetypes="cccccccccccccccccccccccccccccccccccccccccccccccccccccccccccccccccccccccccccccccccccccccccccccccccccccccccccccccccccccccccccccccccccccccccccccccccccccccccccccccccccccccccccccccccccccccccccccccccccccccccccccccccccccccccccccccccccccccccccccccccccccccccccccccccccccccccccccccccccccccccccccccccccccccccccccccccccccccccccccccccccccccccccccccccccccccccc" />
  </g>
</svg>
