<?xml version="1.0" encoding="UTF-8" standalone="no"?>
<svg
   xmlns:dc="http://purl.org/dc/elements/1.1/"
   xmlns:cc="http://creativecommons.org/ns#"
   xmlns:rdf="http://www.w3.org/1999/02/22-rdf-syntax-ns#"
   xmlns:svg="http://www.w3.org/2000/svg"
   xmlns="http://www.w3.org/2000/svg"
   xmlns:sodipodi="http://sodipodi.sourceforge.net/DTD/sodipodi-0.dtd"
   xmlns:inkscape="http://www.inkscape.org/namespaces/inkscape"
   viewBox="0 0 354.3307 354.3307"
   id="svg2"
   version="1.1"
   inkscape:version="0.48.5 r10040"
   width="100%"
   height="100%"
   sodipodi:docname="clef-c.svg">
  <metadata
     id="metadata12">
    <rdf:RDF>
      <cc:Work
         rdf:about="">
        <dc:format>image/svg+xml</dc:format>
        <dc:type
           rdf:resource="http://purl.org/dc/dcmitype/StillImage" />
        <dc:title></dc:title>
      </cc:Work>
    </rdf:RDF>
  </metadata>
  <defs
     id="defs10" />
  <sodipodi:namedview
     pagecolor="#ffffff"
     bordercolor="#666666"
     borderopacity="1"
     objecttolerance="10"
     gridtolerance="10"
     guidetolerance="10"
     inkscape:pageopacity="0"
     inkscape:pageshadow="2"
     inkscape:window-width="2560"
     inkscape:window-height="1368"
     id="namedview8"
     showgrid="true"
     showborder="true"
     inkscape:showpageshadow="false"
     borderlayer="false"
     inkscape:document-units="mm"
     inkscape:zoom="3.776"
     inkscape:cx="90.374857"
     inkscape:cy="181.87518"
     inkscape:window-x="-8"
     inkscape:window-y="-3"
     inkscape:window-maximized="1"
     inkscape:current-layer="layer2"
     units="mm">
    <inkscape:grid
       type="xygrid"
       id="grid2989"
       empspacing="5"
       visible="true"
       enabled="true"
       snapvisiblegridlinesonly="true"
       units="mm"
       spacingx="1mm"
       spacingy="1mm"
       dotted="false" />
  </sodipodi:namedview>
  <g
     inkscape:groupmode="layer"
     id="layer1"
     inkscape:label="Measure"
     style="display:none"
     transform="translate(0,-645.6694)">
    <path
       style="fill:none;stroke:#000000;stroke-width:0.25154195pt;stroke-linecap:butt;stroke-linejoin:miter;stroke-opacity:1"
       d="m 17.716543,822.83475 318.897637,0"
       id="path3016"
       inkscape:connector-curvature="0"
       sodipodi:nodetypes="cc" />
    <path
       style="fill:none;stroke:#000000;stroke-width:0.25141709pt;stroke-linecap:butt;stroke-linejoin:miter;stroke-opacity:1"
       d="m 17.716543,787.40168 318.747407,0"
       id="path3026"
       inkscape:connector-curvature="0" />
    <path
       style="fill:none;stroke:#000000;stroke-width:0.25170074pt;stroke-linecap:butt;stroke-linejoin:miter;stroke-opacity:1"
       d="m 17.716543,751.96861 318.897637,0"
       id="path3028"
       inkscape:connector-curvature="0" />
    <path
       style="fill:none;stroke:#000000;stroke-width:0.25154195pt;stroke-linecap:butt;stroke-linejoin:miter;stroke-opacity:1"
       d="m 17.716543,858.26782 318.897637,0"
       id="path3030"
       inkscape:connector-curvature="0" />
    <path
       style="fill:none;stroke:#000000;stroke-width:0.25154192pt;stroke-linecap:butt;stroke-linejoin:miter;stroke-opacity:1"
       d="m 17.716543,893.70089 318.897637,0"
       id="path3032"
       inkscape:connector-curvature="0" />
    <rect
       style="fill:#000000;stroke:none"
       id="rect3034"
       width="1.3483628"
       height="141.73227"
       x="17.716541"
       y="751.96863" />
    <rect
       style="fill:#000000;stroke:none;display:inline"
       id="rect3034-6"
       width="1.3483628"
       height="141.73228"
       x="335.26584"
       y="751.96863" />
    <path
       style="fill:#b3b3b3;stroke:#ff8080;stroke-width:0.25pt;stroke-linecap:butt;stroke-linejoin:miter;stroke-opacity:1"
       d="m 177.16536,721.86145 0,200.1859"
       id="path3054"
       inkscape:connector-curvature="0" />
  </g>
  <g
     inkscape:groupmode="layer"
     id="layer2"
     inkscape:label="Symbol"
     style="display:inline"
     transform="translate(0,-645.6694)">
    <g
       transform="matrix(0.17986331,0,0,-0.17986331,130.22103,889.38418)"
       id="g4">
      <path
         style="fill:currentColor"
         inkscape:connector-curvature="0"
         d="m 372,309 q 68,0 109,-42 41,-42 41,-111 Q 522,81 473,29.5 424,-22 353,-22 292,-22 251,5.5 210,33 210,82 q 0,20 17,37.5 17,17.5 39,17.5 24,0 40.5,-16.5 Q 323,104 323,82 323,67 307.5,47.5 292,28 292,25 292,7 327,7 q 87,0 87,149 0,40 -4,64.5 -4,24.5 -14,34.5 -10,10 -19,12.5 -9,2.5 -27,2.5 -29,0 -48.5,-23 Q 282,224 263,167 239,301 174,357 V -24 h -38 v 788 h 38 V 382 q 65,56 89,189 25,-102 87,-102 18,0 27,2 9,2 19,12 10,10 14,34 4,24 4,65 0,150 -87,150 -35,0 -35,-17 0,-4 15.5,-23.5 Q 323,672 323,657 323,635 306.5,618.5 290,602 266,602 q -22,0 -39,17.5 -17,17.5 -17,37.5 0,49 41,76.5 41,27.5 102,27.5 71,0 120,-51.5 Q 522,658 522,582 522,516 481.5,473.5 441,431 372,431 q -35,0 -70,13 l -33,-74 33,-75 q 37,14 70,14 z M 99,-24 H 0 V 764 H 99 V -24 z"
         id="path6" />
    </g>
  </g>
</svg>
