<?xml version="1.0" encoding="UTF-8" standalone="no"?>
<svg
   xmlns:dc="http://purl.org/dc/elements/1.1/"
   xmlns:cc="http://creativecommons.org/ns#"
   xmlns:rdf="http://www.w3.org/1999/02/22-rdf-syntax-ns#"
   xmlns:svg="http://www.w3.org/2000/svg"
   xmlns="http://www.w3.org/2000/svg"
   xmlns:sodipodi="http://sodipodi.sourceforge.net/DTD/sodipodi-0.dtd"
   xmlns:inkscape="http://www.inkscape.org/namespaces/inkscape"
   viewBox="0 0 354.3307 354.3307"
   id="svg2"
   version="1.1"
   inkscape:version="0.48.5 r10040"
   width="100%"
   height="100%"
   sodipodi:docname="clef-bass.svg">
  <metadata
     id="metadata12">
    <rdf:RDF>
      <cc:Work
         rdf:about="">
        <dc:format>image/svg+xml</dc:format>
        <dc:type
           rdf:resource="http://purl.org/dc/dcmitype/StillImage" />
        <dc:title></dc:title>
      </cc:Work>
    </rdf:RDF>
  </metadata>
  <defs
     id="defs10" />
  <sodipodi:namedview
     pagecolor="#ffffff"
     bordercolor="#666666"
     borderopacity="1"
     objecttolerance="10"
     gridtolerance="10"
     guidetolerance="10"
     inkscape:pageopacity="0"
     inkscape:pageshadow="2"
     inkscape:window-width="2560"
     inkscape:window-height="1368"
     id="namedview8"
     showgrid="true"
     showborder="true"
     inkscape:showpageshadow="false"
     borderlayer="false"
     inkscape:document-units="mm"
     inkscape:zoom="1.888"
     inkscape:cx="167.45984"
     inkscape:cy="202.27332"
     inkscape:window-x="-8"
     inkscape:window-y="-3"
     inkscape:window-maximized="1"
     inkscape:current-layer="layer2"
     units="mm">
    <inkscape:grid
       type="xygrid"
       id="grid2989"
       empspacing="5"
       visible="true"
       enabled="true"
       snapvisiblegridlinesonly="true"
       units="mm"
       spacingx="1mm"
       spacingy="1mm"
       dotted="false" />
  </sodipodi:namedview>
  <g
     inkscape:groupmode="layer"
     id="layer1"
     inkscape:label="Measure"
     style="display:none"
     transform="translate(0,-645.6694)">
    <path
       style="fill:none;stroke:#000000;stroke-width:0.25154195pt;stroke-linecap:butt;stroke-linejoin:miter;stroke-opacity:1"
       d="m 17.716543,822.83475 318.897637,0"
       id="path3016"
       inkscape:connector-curvature="0"
       sodipodi:nodetypes="cc" />
    <path
       style="fill:none;stroke:#000000;stroke-width:0.25141709pt;stroke-linecap:butt;stroke-linejoin:miter;stroke-opacity:1"
       d="m 17.716543,787.40168 318.747407,0"
       id="path3026"
       inkscape:connector-curvature="0" />
    <path
       style="fill:none;stroke:#000000;stroke-width:0.25170074pt;stroke-linecap:butt;stroke-linejoin:miter;stroke-opacity:1"
       d="m 17.716543,751.96861 318.897637,0"
       id="path3028"
       inkscape:connector-curvature="0" />
    <path
       style="fill:none;stroke:#000000;stroke-width:0.25154195pt;stroke-linecap:butt;stroke-linejoin:miter;stroke-opacity:1"
       d="m 17.716543,858.26782 318.897637,0"
       id="path3030"
       inkscape:connector-curvature="0" />
    <path
       style="fill:none;stroke:#000000;stroke-width:0.25154192pt;stroke-linecap:butt;stroke-linejoin:miter;stroke-opacity:1"
       d="m 17.716543,893.70089 318.897637,0"
       id="path3032"
       inkscape:connector-curvature="0" />
    <rect
       style="fill:#000000;stroke:none"
       id="rect3034"
       width="1.3483628"
       height="141.73227"
       x="17.716541"
       y="751.96863" />
    <rect
       style="fill:#000000;stroke:none;display:inline"
       id="rect3034-6"
       width="1.3483628"
       height="141.73228"
       x="335.26584"
       y="751.96863" />
    <path
       style="fill:#b3b3b3;stroke:#ff8080;stroke-width:0.25pt;stroke-linecap:butt;stroke-linejoin:miter;stroke-opacity:1"
       d="m 177.16536,721.86145 0,200.1859"
       id="path3054"
       inkscape:connector-curvature="0" />
  </g>
  <g
     inkscape:groupmode="layer"
     id="layer2"
     inkscape:label="Symbol"
     style="display:inline"
     transform="translate(0,-645.6694)">
    <g
       transform="matrix(0.18544127,0,0,-0.18544127,113.92988,927.31879)"
       id="g4">
      <path
         style="fill:currentColor"
         inkscape:connector-curvature="0"
         d="m 564,704 q 18,0 30.5,-13 12.5,-13 12.5,-30 0,-17 -14,-30 -14,-13 -30,-13 -42,0 -42,45 0,18 13,29.5 13,11.5 30,11.5 z m 0,-193 q 18,0 30.5,-14 12.5,-14 12.5,-28 0,-19 -13,-32 -13,-13 -30,-13 -43,0 -43,45 0,16 12.5,29 12.5,13 30.5,13 z M 285,757 q 81,0 136,-55.5 Q 476,646 476,569 476,531 465.5,495 455,459 432,426.5 409,394 386,367 363,340 326,313 289,286 264,267.5 239,249 196.5,226 154,203 135.5,193.5 117,184 80,166 l -5,16 q 1,1 27,18 26,17 42,27.5 16,10.5 47.5,35.5 31.5,25 52.5,46.5 21,21.5 47.5,54 26.5,32.5 42.5,63.5 16,31 27.5,71 11.5,40 11.5,80 0,157 -111,157 -37,0 -63,-9.5 Q 173,716 161.5,702 150,688 145,677.5 140,667 140,659 q 0,-15 20,-15 8,0 19,3.5 11,3.5 15,3.5 27,0 45,-17 18,-17 18,-42 0,-29 -22,-48 -22,-19 -52,-19 -39,0 -64,23 -25,23 -25,59 0,66 56.5,108 56.5,42 134.5,42 z"
         id="path6" />
    </g>
  </g>
</svg>
